<svg height="100%" viewBox="-31 0 512 512" width="100%" xmlns="http://www.w3.org/2000/svg"><path d="m133.832031 0h179.972657v29.980469h-179.972657zm0 0"/><path d="m389.757812 181.542969h-17.171874c-15.605469-31.460938-41.109376-57.671875-73.519532-74v-48.253907h-150.269531v49.214844c-31.457031 16.367188-56.269531 42.203125-71.59375 73.039063h-17.242187c-15.964844 0-31.007813 6.253906-42.359376 17.605469-11.347656 11.347656-17.601562 26.394531-17.601562 42.359374 0 33.0625 26.898438 59.960938 59.960938 59.960938h6.683593c2.054688 6.96875 4.578125 13.816406 7.574219 20.523438l79.710938 190.007812h140.023437l81.242187-189.3125.15625-.355469c3.0625-6.816406 5.632813-13.777343 7.722657-20.863281h6.683593c15.96875 0 31.011719-6.25 42.363282-17.601562 11.347656-11.347657 17.601562-26.394532 17.601562-42.359376 0-33.0625-26.902344-59.964843-59.964844-59.964843zm-328.964843 89.945312h-.832031c-16.53125 0-29.980469-13.449219-29.980469-29.980469 0-7.957031 3.132812-15.472656 8.820312-21.160156s13.203125-8.820312 21.160157-8.820312h5.824218c-3.800781 13.917968-5.824218 28.460937-5.824218 43.3125 0 5.597656.285156 11.148437.832031 16.648437zm350.125-8.820312c-5.6875 5.6875-13.203125 8.820312-21.160157 8.820312h-.832031c.550781-5.5.832031-11.050781.832031-16.648437 0-14.875-2.011718-29.410156-5.792968-43.3125h5.792968c16.53125 0 29.980469 13.449218 29.980469 29.980468 0 7.957032-3.132812 15.472657-8.820312 21.160157zm0 0"/></svg>